<svg version="1.1" id="Layer_1" xmlns="http://www.w3.org/2000/svg" xmlns:xlink="http://www.w3.org/1999/xlink" x="0px" y="0px" viewBox="0 0 1200 1200" enable-background="new 0 0 1200 1200" xml:space="preserve">
<g>
	<g>
		<g>
			<rect x="494.975" y="52.764" fill="#6B0B1E" width="210.05" height="1094.472"/>
		</g>
		<g>
			<path fill="#492E39" d="M705.025,1150h-210.05c-1.522,0-2.764-1.236-2.764-2.764V52.764c0-1.528,1.242-2.764,2.764-2.764h210.05&#10;&#9;&#9;&#9;&#9;c1.522,0,2.764,1.236,2.764,2.764v1094.472C707.789,1148.764,706.547,1150,705.025,1150z M497.739,1144.472h204.523V55.528&#10;&#9;&#9;&#9;&#9;H497.739V1144.472z"/>
		</g>
	</g>
	<g>
		<g>
			<rect x="494.975" y="119.095" fill="#E7CDAA" width="210.05" height="22.111"/>
		</g>
		<g>
			<path fill="#492E39" d="M705.025,143.97h-210.05c-1.522,0-2.764-1.236-2.764-2.764v-22.111c0-1.528,1.242-2.764,2.764-2.764&#10;&#9;&#9;&#9;&#9;h210.05c1.522,0,2.764,1.236,2.764,2.764v22.111C707.789,142.734,706.547,143.97,705.025,143.97z M497.739,138.442h204.523&#10;&#9;&#9;&#9;&#9;v-16.583H497.739V138.442z"/>
		</g>
	</g>
	<g>
		<g>
			<rect x="494.975" y="262.814" fill="#E7CDAA" width="210.05" height="22.111"/>
		</g>
		<g>
			<path fill="#492E39" d="M705.025,287.688h-210.05c-1.522,0-2.764-1.236-2.764-2.764v-22.111c0-1.528,1.242-2.764,2.764-2.764&#10;&#9;&#9;&#9;&#9;h210.05c1.522,0,2.764,1.236,2.764,2.764v22.111C707.789,286.452,706.547,287.688,705.025,287.688z M497.739,282.161h204.523&#10;&#9;&#9;&#9;&#9;v-16.583H497.739V282.161z"/>
		</g>
	</g>
	<g>
		<g>
			<rect x="494.975" y="892.965" fill="#E7CDAA" width="210.05" height="22.111"/>
		</g>
		<g>
			<path fill="#492E39" d="M705.025,917.839h-210.05c-1.522,0-2.764-1.236-2.764-2.764v-22.111c0-1.528,1.242-2.764,2.764-2.764&#10;&#9;&#9;&#9;&#9;h210.05c1.522,0,2.764,1.236,2.764,2.764v22.111C707.789,916.603,706.547,917.839,705.025,917.839z M497.739,912.312h204.523&#10;&#9;&#9;&#9;&#9;v-16.583H497.739V912.312z"/>
		</g>
	</g>
	<g>
		<g>
			<rect x="494.975" y="1036.683" fill="#E7CDAA" width="210.05" height="22.111"/>
		</g>
		<g>
			<path fill="#492E39" d="M705.025,1061.558h-210.05c-1.522,0-2.764-1.236-2.764-2.764v-22.11c0-1.528,1.242-2.764,2.764-2.764&#10;&#9;&#9;&#9;&#9;h210.05c1.522,0,2.764,1.236,2.764,2.764v22.11C707.789,1060.322,706.547,1061.558,705.025,1061.558z M497.739,1056.03h204.523&#10;&#9;&#9;&#9;&#9;v-16.583H497.739V1056.03z"/>
		</g>
	</g>
</g>
</svg>